<svg xmlns="http://www.w3.org/2000/svg" width="128" height="128" fill="none" viewBox="0 0 128 128" id="ai-chipset"><path stroke="#1B1B1B" stroke-linecap="round" stroke-width="6" d="M97 80.5V88C97 93.5228 92.5228 98 87 98H80M31 80.5V88C31 93.5228 35.4772 98 41 98H47.5M31 47V41C31 35.4772 35.4772 31 41 31H47.5M97 47V41C97 35.4772 92.5228 31 87 31H80M31 70.125V63.75 57.375M97 70.125V63.75 57.375M69.375 31H62.75 57.125M69.375 98H62.75 57.125M46 76L58.0844 52.2089C58.1495 52.0807 58.281 52 58.4248 52V52C58.5725 52 58.7069 52.0852 58.77 52.2187L70 76M52 70H63M81 76V52M97 80H104M48 98L48 106"></path><path stroke="#1B1B1B" stroke-linecap="round" stroke-linejoin="round" stroke-width="6" d="M31 80H23"></path><path stroke="#1B1B1B" stroke-linecap="round" stroke-width="6" d="M48 31L48 23"></path><path stroke="#1B1B1B" stroke-linecap="round" stroke-linejoin="round" stroke-width="6" d="M97 47H104"></path><path stroke="#1B1B1B" stroke-linecap="round" stroke-width="6" d="M80 98L80 106"></path><path fill="#1B1B1B" d="M101 61H98V67H101V61zM112 67C113.657 67 115 65.6569 115 64 115 62.3431 113.657 61 112 61V67zM101 67H112V61H101V67zM66 101L66 98 60 98 60 101 66 101zM60 112C60 113.657 61.3431 115 63 115 64.6569 115 66 113.657 66 112L60 112zM60 101L60 112 66 112 66 101 60 101zM27 61H30V67H27V61zM16 67C14.3431 67 13 65.6569 13 64 13 62.3431 14.3431 61 16 61V67zM27 67H16V61H27V67zM66 26L66 29 60 29 60 26 66 26zM60 15C60 13.3431 61.3431 12 63 12 64.6569 12 66 13.3431 66 15L60 15zM60 26L60 15 66 15 66 26 60 26z"></path><path stroke="#1B1B1B" stroke-linecap="round" stroke-linejoin="round" stroke-width="6" d="M31 47H23"></path><path stroke="#1B1B1B" stroke-linecap="round" stroke-width="6" d="M80 31L80 23"></path></svg>