<svg xmlns="http://www.w3.org/2000/svg" height="24px" viewBox="0 -960 960 960" width="24px" fill="#e8eaed"><path d="M346.77-140v-50.26h82.98V-280H162.57q-25.79 0-44.18-18.39T100-342.56v-414.87q0-25.79 18.39-44.18T162.57-820h634.86q25.79 0 44.18 18.39T860-757.43v414.87q0 25.78-18.39 44.17T797.43-280H530.25v89.74h82.98V-140H346.77Zm-184.2-190.25h634.86q4.62 0 8.47-3.85 3.84-3.85 3.84-8.46v-414.87q0-4.62-3.84-8.47-3.85-3.84-8.47-3.84H162.57q-4.62 0-8.47 3.84-3.84 3.85-3.84 8.47v414.87q0 4.61 3.84 8.46 3.85 3.85 8.47 3.85Zm-12.31 0v-439.49 439.49Z"/></svg>