<svg xmlns="http://www.w3.org/2000/svg" height="24px" viewBox="0 -960 960 960" width="24px" fill="#e8eaed"><path d="M403.54-150h152.92v-35.38H403.54V-150ZM282.57-60q-25.79 0-44.18-18.39T220-122.57v-714.86q0-25.79 18.39-44.18T282.57-900h394.86q25.79 0 44.18 18.39T740-837.43v714.86q0 25.79-18.39 44.18T677.43-60H282.57Zm-12.31-164.87v102.3q0 4.62 3.84 8.47 3.85 3.84 8.47 3.84h394.86q4.62 0 8.47-3.84 3.84-3.85 3.84-8.47v-102.3H270.26Zm0-50.26h419.48v-479.23H270.26v479.23Zm0-529.48h419.48v-32.82q0-4.62-3.84-8.47-3.85-3.84-8.47-3.84H282.57q-4.62 0-8.47 3.84-3.84 3.85-3.84 8.47v32.82Zm0 579.74v114.61-114.61Zm0-579.74V-849.74v45.13Z"/></svg>