<svg xmlns="http://www.w3.org/2000/svg" height="40px" viewBox="0 -960 960 960" width="40px" fill="#e8eaed"><path d="M202.57-190.26h367.17v-200h200v-367.17q0-5.39-3.46-8.85t-8.85-3.46H202.57q-5.39 0-8.85 3.46t-3.46 8.85v554.86q0 5.39 3.46 8.85t8.85 3.46Zm0 50.26q-25.71 0-44.14-18.43T140-202.57v-554.86q0-25.71 18.43-44.14T202.57-820h554.86q25.71 0 44.14 18.43T820-757.43v383.2L585.77-140h-383.2Zm104.87-280.51v-50.26h167.69v50.26H307.44Zm0-159.23V-630h345.12v50.26H307.44ZM190.26-190.26V-769.74v579.48Z"/></svg>