<svg xmlns="http://www.w3.org/2000/svg"  viewBox="0 0 72 72" width="64px" height="64px"><path d="M 36 14.34375 C 24.517 14.34375 14.201172 23.846 14.201172 36 C 14.201172 47.145 23.439 57.658203 36 57.658203 C 38.010546 57.658203 39.934024 57.404967 41.75 56.933594 C 43.96518 60.810472 46.802871 64.244141 52.216797 64.244141 C 61.242797 64.244141 62.060547 55.928609 62.060547 53.849609 L 58.826172 53.849609 C 58.659172 55.338609 57.645109 56.880859 55.162109 56.880859 C 52.718639 56.880859 51.150934 55.20447 49.710938 52.964844 C 54.720772 48.975807 57.798828 42.825326 57.798828 36.001953 C 57.798828 23.274953 47.483 14.34375 36 14.34375 z M 36.117188 18.503906 C 45.429187 18.503906 48.048828 26.308594 48.048828 35.933594 C 48.048828 40.188735 47.561055 44.113483 46.179688 47.162109 C 44.040059 44.045606 41.189301 41.378906 36.107422 41.378906 C 32.741422 41.378906 30.438453 42.359484 28.814453 43.771484 L 30.160156 46.453125 C 30.844156 46.123125 31.272437 46.134766 32.023438 46.134766 C 35.723009 46.134766 37.689661 49.283348 39.613281 52.935547 C 38.570336 53.211735 37.411016 53.363281 36.117188 53.363281 C 26.194187 53.363281 24.1885 44.903594 24.1875 35.933594 C 24.1875 26.151594 26.805188 18.503906 36.117188 18.503906 z"/></svg>