<svg xmlns="http://www.w3.org/2000/svg" height="24px" viewBox="0 -960 960 960" width="24px" fill="#e8eaed"><path d="M820-673.03v470.46q0 25.79-18.39 44.18T757.43-140H202.57q-25.79 0-44.18-18.39T140-202.57v-554.86q0-25.79 18.39-44.18T202.57-820h470.46L820-673.03Zm-50.26 22.16L650.87-769.74h-448.3q-5.39 0-8.85 3.46t-3.46 8.85v554.86q0 5.39 3.46 8.85t8.85 3.46h554.86q5.39 0 8.85-3.46t3.46-8.85v-448.3ZM479.84-271.8q38.21 0 65.26-26.89 27.05-26.9 27.05-65.1 0-38.21-26.89-65.26-26.9-27.05-65.1-27.05-38.21 0-65.26 26.89-27.05 26.9-27.05 65.1 0 38.21 26.89 65.26 26.9 27.05 65.1 27.05ZM252-576.26h327.38V-708H252v131.74Zm-61.74-74.61v460.61-579.48 118.87Z"/></svg>